<?xml version="1.0" standalone="no"?>
<!DOCTYPE svg PUBLIC "-//W3C//DTD SVG 20010904//EN"
 "http://www.w3.org/TR/2001/REC-SVG-20010904/DTD/svg10.dtd">
<svg version="1.0" xmlns="http://www.w3.org/2000/svg"
 width="300.000000pt" height="300.000000pt" viewBox="0 0 300.000000 300.000000"
 preserveAspectRatio="xMidYMid meet">
<metadata>
Created by potrace 1.14, written by Peter Selinger 2001-2017
</metadata>
<g transform="translate(0.000000,300.000000) scale(0.100000,-0.100000)"
fill="#000000" stroke="none">
<path d="M508 2791 l-33 -29 -5 -327 -5 -327 -185 -107 c-102 -59 -204 -112
-227 -119 -34 -10 -42 -17 -47 -43 -3 -17 -6 -385 -6 -816 l0 -785 29 -29 29
-29 1442 0 1442 0 29 29 29 29 0 785 c0 431 -3 798 -6 815 -5 24 -14 32 -48
43 -23 8 -126 63 -229 122 l-187 109 0 320 0 320 -34 34 -34 34 -961 0 -961 0
-32 -29z m1956 -39 c15 -17 16 -69 14 -583 l-3 -564 -475 -267 c-280 -158
-485 -267 -500 -267 -14 0 -239 121 -500 268 l-475 268 -3 563 c-2 513 -1 565
14 582 16 17 58 18 964 18 906 0 948 -1 964 -18z m-1996 -1006 l-3 -105 -178
100 c-98 56 -177 102 -175 104 2 2 82 49 178 104 l175 101 3 -99 c1 -55 1
-147 0 -205z m2249 199 c95 -54 170 -102 168 -106 -4 -5 -322 -187 -347 -197
-4 -2 -8 89 -8 203 0 113 3 204 8 202 4 -2 84 -48 179 -102z m-1983 -525 c366
-206 666 -377 666 -380 0 -4 -1318 -760 -1341 -768 -5 -2 -9 329 -9 763 0 433
4 765 9 763 5 -1 308 -172 675 -378z m2214 -764 l-3 -385 -670 379 c-368 209
-671 383 -672 387 -1 5 300 178 670 386 l672 377 3 -379 c1 -209 1 -553 0
-765z"/>
<path d="M706 2537 c-27 -20 -18 -69 14 -78 38 -11 145 -10 173 0 34 13 44 47
21 72 -14 16 -31 19 -104 19 -55 0 -93 -5 -104 -13z"/>
<path d="M2167 2522 c-39 -43 -2 -102 64 -102 16 0 20 -3 13 -10 -8 -8 -19 -7
-39 0 -49 19 -78 -27 -30 -48 84 -39 164 19 114 81 -11 15 -28 27 -37 27 -9 0
-24 5 -32 11 -11 8 -6 9 21 5 27 -5 40 -2 50 10 11 14 10 18 -6 30 -28 21 -98
18 -118 -4z"/>
<path d="M1012 2008 c-15 -15 -15 -51 0 -66 9 -9 131 -12 489 -12 421 0 479 2
493 16 19 18 20 28 6 55 -10 18 -26 19 -493 19 -362 0 -486 -3 -495 -12z"/>
</g>
</svg>
